<svg width="17" height="18" viewBox="0 0 17 18" fill="none" xmlns="http://www.w3.org/2000/svg">
<g filter="url(#filter0_d_1_3)">
<path d="M10.766 6.516C10.766 5.908 10.642 5.424 10.394 5.064C10.154 4.696 9.70198 4.512 9.03798 4.512H8.38998C8.17398 4.504 7.95798 4.508 7.74198 4.524C7.53398 4.532 7.32198 4.536 7.10598 4.536V8.232C7.10598 8.408 7.16998 8.524 7.29798 8.58C7.42598 8.628 7.56198 8.652 7.70598 8.652C7.85798 8.652 8.00598 8.652 8.14998 8.652C8.30198 8.644 8.45398 8.636 8.60598 8.628C9.26198 8.588 9.78598 8.4 10.178 8.064C10.57 7.72 10.766 7.204 10.766 6.516ZM10.154 2.28C10.154 1.68 9.99398 1.248 9.67398 0.983999C9.35398 0.712 8.90598 0.576 8.32998 0.576C7.92198 0.576 7.51398 0.588 7.10598 0.611999V4.152C7.19398 4.152 7.28198 4.152 7.36998 4.152C7.46598 4.152 7.55798 4.152 7.64598 4.152C7.84598 4.152 8.06598 4.144 8.30598 4.128C8.54598 4.112 8.77798 4.076 9.00198 4.02C9.22598 3.956 9.40998 3.852 9.55398 3.708C9.73798 3.532 9.88198 3.316 9.98598 3.06C10.098 2.796 10.154 2.536 10.154 2.28ZM12.194 6.324C12.194 6.892 12.058 7.384 11.786 7.8C11.514 8.208 11.11 8.516 10.574 8.724C10.286 8.836 9.96998 8.912 9.62598 8.952C9.28198 8.984 8.95398 9 8.64198 9C8.58598 9 8.52998 9 8.47398 9C8.41798 9 8.35798 9 8.29398 9C7.91798 8.984 7.53798 8.972 7.15398 8.964C6.77798 8.948 6.40198 8.94 6.02598 8.94C5.80998 8.94 5.59398 8.956 5.37798 8.988C5.16998 9.012 4.95798 9.024 4.74198 9.024C4.64598 9.024 4.58598 9 4.56198 8.952C4.54598 8.904 4.53798 8.84 4.53798 8.76C4.53798 8.704 4.55798 8.664 4.59798 8.64C4.63798 8.616 4.68198 8.604 4.72998 8.604C4.84198 8.604 4.95398 8.604 5.06598 8.604C5.18598 8.596 5.29798 8.584 5.40198 8.568C5.55398 8.544 5.64998 8.48 5.68998 8.376C5.73798 8.272 5.76598 8.152 5.77398 8.016C5.78998 7.856 5.79398 7.696 5.78598 7.536C5.78598 7.368 5.78598 7.204 5.78598 7.044V4.02C5.78598 3.94 5.78598 3.792 5.78598 3.576C5.78598 3.352 5.78598 3.104 5.78598 2.832C5.78598 2.56 5.78598 2.292 5.78598 2.028C5.78598 1.756 5.78198 1.524 5.77398 1.332C5.76598 1.14 5.75398 1.02 5.73798 0.972C5.68998 0.835999 5.60598 0.751999 5.48598 0.719999C5.37398 0.679999 5.24598 0.664 5.10198 0.672C4.96598 0.672 4.84198 0.672 4.72998 0.672C4.67398 0.672 4.62598 0.644 4.58598 0.588C4.55398 0.532 4.53798 0.48 4.53798 0.431999C4.53798 0.384 4.55398 0.34 4.58598 0.3C4.61798 0.26 4.65798 0.24 4.70598 0.24C4.88998 0.24 5.06598 0.248 5.23398 0.263999C5.40998 0.28 5.58598 0.288 5.76198 0.288C6.22598 0.288 6.68598 0.276 7.14198 0.252C7.60598 0.22 8.06998 0.187999 8.53398 0.155999C8.59798 0.148 8.66198 0.144 8.72598 0.144C8.78998 0.136 8.84998 0.132 8.90598 0.132C9.35398 0.132 9.78198 0.188 10.19 0.3C10.598 0.412 10.93 0.616 11.186 0.912C11.45 1.2 11.582 1.608 11.582 2.136C11.582 2.464 11.494 2.76 11.318 3.024C11.15 3.288 10.93 3.516 10.658 3.708C10.394 3.892 10.122 4.04 9.84198 4.152L9.85398 4.176C10.238 4.24 10.606 4.356 10.958 4.524C11.318 4.692 11.614 4.924 11.846 5.22C12.078 5.508 12.194 5.876 12.194 6.324Z" fill="black"/>
</g>
<defs>
<filter id="filter0_d_1_3" x="0.537994" y="0.132004" width="15.656" height="16.892" filterUnits="userSpaceOnUse" color-interpolation-filters="sRGB">
<feFlood flood-opacity="0" result="BackgroundImageFix"/>
<feColorMatrix in="SourceAlpha" type="matrix" values="0 0 0 0 0 0 0 0 0 0 0 0 0 0 0 0 0 0 127 0" result="hardAlpha"/>
<feOffset dy="4"/>
<feGaussianBlur stdDeviation="2"/>
<feComposite in2="hardAlpha" operator="out"/>
<feColorMatrix type="matrix" values="0 0 0 0 0 0 0 0 0 0 0 0 0 0 0 0 0 0 0.25 0"/>
<feBlend mode="normal" in2="BackgroundImageFix" result="effect1_dropShadow_1_3"/>
<feBlend mode="normal" in="SourceGraphic" in2="effect1_dropShadow_1_3" result="shape"/>
</filter>
</defs>
</svg>
