<svg width="16" height="18" viewBox="0 0 16 18" fill="none" xmlns="http://www.w3.org/2000/svg">
    <path d="M11.788 6.912C11.788 7.056 11.772 7.204 11.74 7.356C11.716 7.5 11.692 7.644 11.668 7.788C11.652 7.948 11.64 8.112 11.632 8.28C11.624 8.44 11.6 8.6 11.56 8.76C11.552 8.816 11.52 8.868 11.464 8.916C11.416 8.964 11.36 8.988 11.296 8.988C10.44 8.988 9.584 8.984 8.728 8.976C7.872 8.96 7.016 8.952 6.16 8.952C5.896 8.952 5.632 8.964 5.368 8.988C5.112 9.004 4.856 9.012 4.6 9.012C4.552 9.012 4.5 9 4.444 8.976C4.388 8.944 4.36 8.9 4.36 8.844C4.36 8.74 4.4 8.672 4.48 8.64C4.56 8.608 4.656 8.592 4.768 8.592C4.888 8.592 5.004 8.584 5.116 8.568C5.228 8.552 5.324 8.504 5.404 8.424C5.484 8.336 5.524 8.192 5.524 7.992L5.512 1.164C5.512 0.979999 5.46 0.863999 5.356 0.816C5.252 0.76 5.124 0.732 4.972 0.732C4.908 0.732 4.84 0.736 4.768 0.744C4.704 0.744 4.64 0.744 4.576 0.744C4.496 0.744 4.424 0.728 4.36 0.696C4.296 0.664 4.264 0.604 4.264 0.516C4.264 0.34 4.348 0.252 4.516 0.252C4.652 0.252 4.788 0.256 4.924 0.263999C5.06 0.271999 5.196 0.275999 5.332 0.275999C6.14 0.275999 6.944 0.271999 7.744 0.263999C8.552 0.248 9.36 0.24 10.168 0.24C10.552 0.24 10.936 0.228 11.32 0.204C11.352 0.435999 11.392 0.671999 11.44 0.912C11.488 1.144 11.528 1.38 11.56 1.62C11.576 1.66 11.588 1.704 11.596 1.752C11.604 1.8 11.608 1.844 11.608 1.884C11.608 1.98 11.572 2.048 11.5 2.088C11.436 2.12 11.36 2.136 11.272 2.136C11.192 2.136 11.132 2.124 11.092 2.1C11.052 2.068 11.016 2.012 10.984 1.932C10.848 1.468 10.656 1.144 10.408 0.96C10.16 0.776 9.792 0.684 9.304 0.684H6.88V4.212C7.184 4.204 7.484 4.2 7.78 4.2C8.076 4.192 8.372 4.18 8.668 4.164C8.98 4.148 9.284 4.12 9.58 4.08C9.876 4.032 10.176 3.98 10.48 3.924C10.488 3.924 10.492 3.924 10.492 3.924C10.5 3.924 10.508 3.924 10.516 3.924C10.54 3.924 10.572 3.932 10.612 3.948C10.66 3.964 10.684 3.988 10.684 4.02C10.684 4.076 10.656 4.176 10.6 4.32C10.552 4.464 10.516 4.56 10.492 4.608C10.436 4.712 10.352 4.764 10.24 4.764C10.176 4.764 10.108 4.764 10.036 4.764C9.972 4.756 9.908 4.748 9.844 4.74C9.7 4.724 9.556 4.712 9.412 4.704C9.268 4.696 9.124 4.688 8.98 4.68C8.78 4.68 8.584 4.68 8.392 4.68C8.2 4.68 8.004 4.68 7.804 4.68C7.692 4.68 7.56 4.688 7.408 4.704C7.264 4.72 7.14 4.764 7.036 4.836C6.932 4.908 6.88 5.024 6.88 5.184V8.052C6.88 8.284 6.928 8.428 7.024 8.484C7.128 8.532 7.28 8.556 7.48 8.556H8.524C8.74 8.556 8.98 8.544 9.244 8.52C9.516 8.496 9.776 8.448 10.024 8.376C10.28 8.304 10.488 8.192 10.648 8.04C10.816 7.88 10.944 7.696 11.032 7.488C11.128 7.28 11.224 7.076 11.32 6.876C11.36 6.788 11.44 6.744 11.56 6.744C11.616 6.744 11.668 6.756 11.716 6.78C11.764 6.804 11.788 6.848 11.788 6.912Z"
          fill="black"/>
</svg>
