<svg width="29" height="17" viewBox="0 0 29 17" fill="none" xmlns="http://www.w3.org/2000/svg">
<path d="M12.9776 12.56C12.9776 12.7733 12.9509 12.9933 12.8976 13.22C12.8576 13.4333 12.8242 13.6533 12.7976 13.88C12.7709 14.1333 12.7376 14.3933 12.6976 14.66C12.6709 14.9267 12.6442 15.1933 12.6176 15.46C12.5776 15.6733 12.5176 15.82 12.4376 15.9C12.3576 15.9667 12.2042 16 11.9776 16C10.6176 16 9.25758 15.9933 7.89758 15.98C6.53758 15.9533 5.17758 15.94 3.81758 15.94C3.35091 15.94 2.88424 15.96 2.41758 16C1.95091 16.0533 1.48424 16.08 1.01758 16.08C0.790911 16.08 0.677578 15.9667 0.677578 15.74C0.677578 15.5133 0.777578 15.4 0.977578 15.4C1.17758 15.3867 1.39091 15.3667 1.61758 15.34C1.88424 15.3133 2.09758 15.2133 2.25758 15.04C2.43091 14.8533 2.51758 14.48 2.51758 13.92V3.14C2.51758 2.92667 2.47758 2.72 2.39758 2.52C2.33091 2.32 2.16424 2.22 1.89758 2.22C1.73758 2.22 1.57758 2.22667 1.41758 2.24C1.25758 2.24 1.09758 2.24 0.937578 2.24C0.604245 2.24 0.437578 2.08 0.437578 1.76C0.437578 1.6 0.490911 1.5 0.597578 1.46C0.704245 1.40667 0.824245 1.38 0.957578 1.38C1.34424 1.38 1.72424 1.39333 2.09758 1.42C2.47091 1.43333 2.84424 1.44 3.21758 1.44C4.47091 1.44 5.72425 1.43333 6.97758 1.42C8.23091 1.39333 9.48425 1.38 10.7376 1.38C10.9776 1.38 11.2176 1.37333 11.4576 1.36C11.6976 1.33333 11.9376 1.30667 12.1776 1.28C12.2042 1.49333 12.2309 1.70667 12.2576 1.92C12.2976 2.13333 12.3309 2.34667 12.3576 2.56C12.3976 2.81333 12.4509 3.08 12.5176 3.36C12.5976 3.64 12.6376 3.91333 12.6376 4.18C12.6376 4.34 12.5709 4.47333 12.4376 4.58C12.3042 4.67333 12.1642 4.72 12.0176 4.72C11.6976 4.72 11.4842 4.58 11.3776 4.3C11.1776 3.67333 10.8776 3.15333 10.4776 2.74C10.0909 2.31333 9.54425 2.1 8.83758 2.1H5.23758V7.98C5.74425 7.98 6.23758 7.97333 6.71758 7.96C7.21091 7.94667 7.70424 7.92 8.19758 7.88C8.69091 7.84 9.16425 7.76 9.61758 7.64C9.80425 7.6 9.99758 7.54667 10.1976 7.48C10.4109 7.41333 10.6109 7.38 10.7976 7.38C10.9576 7.38 11.0376 7.45333 11.0376 7.6C11.0376 7.69333 11.0109 7.83333 10.9576 8.02C10.9176 8.20667 10.8842 8.34667 10.8576 8.44C10.7909 8.61333 10.7242 8.72 10.6576 8.76C10.5909 8.78667 10.4709 8.8 10.2976 8.8C9.97758 8.8 9.66424 8.78 9.35758 8.74C8.85091 8.68667 8.33758 8.65333 7.81758 8.64C7.29758 8.61333 6.77758 8.6 6.25758 8.6C5.96425 8.6 5.71758 8.68 5.51758 8.84C5.33091 8.98667 5.23758 9.22 5.23758 9.54V14.46C5.23758 14.78 5.27758 15.0067 5.35758 15.14C5.45091 15.2733 5.66425 15.34 5.99758 15.34C6.35758 15.34 6.75758 15.34 7.19758 15.34C7.63758 15.34 8.08425 15.32 8.53758 15.28C9.00425 15.24 9.43758 15.1533 9.83758 15.02C10.2376 14.8867 10.5709 14.6867 10.8376 14.42C11.0642 14.1933 11.2842 13.8933 11.4976 13.52C11.7109 13.1467 11.8842 12.8133 12.0176 12.52C12.0842 12.36 12.1509 12.2533 12.2176 12.2C12.2842 12.1333 12.4042 12.1 12.5776 12.1C12.7376 12.1 12.8442 12.14 12.8976 12.22C12.9509 12.3 12.9776 12.4133 12.9776 12.56ZM22.7541 10.06C22.3808 8.92667 21.9941 7.8 21.5941 6.68C21.2075 5.56 20.8341 4.43333 20.4741 3.3C20.0875 4.43333 19.7008 5.56 19.3141 6.68C18.9408 7.8 18.5608 8.92667 18.1741 10.06H22.7541ZM28.7541 15.8C28.7541 16 28.6275 16.1 28.3741 16.1C28.2941 16.1 28.2141 16.1 28.1341 16.1C28.0541 16.1 27.9675 16.0933 27.8741 16.08C27.5408 16.0533 27.1941 16.04 26.8341 16.04C26.4875 16.04 26.1408 16.04 25.7941 16.04C25.3541 16.04 24.9141 16.04 24.4741 16.04C24.0341 16.04 23.5875 16.0533 23.1341 16.08C23.0808 16.0933 23.0275 16.1 22.9741 16.1C22.9208 16.1 22.8675 16.1 22.8141 16.1C22.6275 16.1 22.5341 16.0067 22.5341 15.82C22.5341 15.66 22.5875 15.5667 22.6941 15.54C22.8141 15.5 22.9475 15.4867 23.0941 15.5C23.2408 15.5133 23.3608 15.52 23.4541 15.52C23.6941 15.52 23.8675 15.4733 23.9741 15.38C24.0941 15.2733 24.1541 15.0933 24.1541 14.84C24.1541 14.6933 24.1075 14.44 24.0141 14.08C23.9208 13.7067 23.8075 13.3 23.6741 12.86C23.5408 12.42 23.4075 12.0133 23.2741 11.64C23.1541 11.2533 23.0675 10.98 23.0141 10.82H17.9141C17.8875 10.9 17.8275 11.08 17.7341 11.36C17.6408 11.64 17.5275 11.9667 17.3941 12.34C17.2741 12.7133 17.1541 13.08 17.0341 13.44C16.9141 13.8 16.8141 14.1133 16.7341 14.38C16.6541 14.6333 16.6141 14.7867 16.6141 14.84C16.6141 15.0933 16.6808 15.2667 16.8141 15.36C16.9475 15.4533 17.1141 15.5067 17.3141 15.52C17.5141 15.52 17.7075 15.52 17.8941 15.52C17.9608 15.52 18.0141 15.5667 18.0541 15.66C18.0941 15.74 18.1141 15.8133 18.1141 15.88C18.1141 15.96 18.0808 16.02 18.0141 16.06C17.9608 16.1 17.9008 16.12 17.8341 16.12C17.3941 16.12 16.9541 16.1067 16.5141 16.08C16.0875 16.0667 15.6608 16.06 15.2341 16.06C15.0208 16.06 14.8075 16.0667 14.5941 16.08C14.3808 16.0933 14.1608 16.1 13.9341 16.1C13.8675 16.1 13.8008 16.0733 13.7341 16.02C13.6675 15.9667 13.6341 15.9067 13.6341 15.84C13.6341 15.6933 13.6875 15.6 13.7941 15.56C13.9008 15.52 14.0208 15.5067 14.1541 15.52C14.3008 15.52 14.4208 15.52 14.5141 15.52C14.6875 15.52 14.8275 15.4533 14.9341 15.32C15.0541 15.1733 15.1408 15.0333 15.1941 14.9C15.9808 12.9267 16.7275 10.9467 17.4341 8.96C18.1408 6.96 18.8275 4.95333 19.4941 2.94C19.5475 2.79333 19.6141 2.58667 19.6941 2.32C19.7741 2.05333 19.8141 1.85333 19.8141 1.72C19.8141 1.64 19.7941 1.57333 19.7541 1.52C19.7275 1.45333 19.7141 1.39333 19.7141 1.34C19.7141 1.28667 19.7808 1.24667 19.9141 1.22C20.0475 1.19333 20.1875 1.17333 20.3341 1.16C20.4808 1.14667 20.5741 1.14 20.6141 1.14C20.8941 1.1 21.1675 1.06 21.4341 1.02C21.7141 0.979999 21.9941 0.946666 22.2741 0.92L27.1741 14.74C27.2808 15.06 27.4208 15.2667 27.5941 15.36C27.7808 15.44 28.0275 15.48 28.3341 15.48C28.4541 15.48 28.5541 15.5 28.6341 15.54C28.7141 15.5667 28.7541 15.6533 28.7541 15.8Z" fill="black"/>
</svg>
