<svg width="18" height="17" viewBox="0 0 18 17" fill="none" xmlns="http://www.w3.org/2000/svg">
<g filter="url(#filter0_d_1_3)">
<path d="M13.5405 5.304C13.5405 5.448 13.4645 5.52 13.3125 5.52H12.6405V8.076C12.3525 8.156 12.0685 8.252 11.7885 8.364C11.5085 8.476 11.2285 8.588 10.9485 8.7C10.6765 8.82 10.3925 8.896 10.0965 8.928C9.8005 8.96 9.5045 8.976 9.2085 8.976C8.9605 8.976 8.6845 8.948 8.3805 8.892C8.0845 8.836 7.7925 8.756 7.5045 8.652C7.2165 8.54 6.9685 8.416 6.7605 8.28C6.1445 7.864 5.6885 7.336 5.3925 6.696C5.1045 6.048 4.9605 5.364 4.9605 4.644C4.9605 4.012 5.0605 3.424 5.2605 2.88C5.4605 2.328 5.7485 1.844 6.1245 1.428C6.5005 1.012 6.9485 0.688 7.4685 0.456C7.9965 0.224 8.5845 0.107999 9.2325 0.107999C9.6965 0.107999 10.1645 0.175999 10.6365 0.312C10.7165 0.336 10.8325 0.372 10.9845 0.42C11.1365 0.467999 11.2845 0.511999 11.4285 0.551999C11.5725 0.591999 11.6765 0.611999 11.7405 0.611999C11.9005 0.611999 12.0085 0.583999 12.0645 0.528C12.1285 0.464 12.1845 0.404 12.2325 0.348C12.2885 0.292 12.3765 0.263999 12.4965 0.263999C12.6085 0.263999 12.6685 0.308 12.6765 0.396C12.6925 0.492 12.6965 0.592 12.6885 0.696C12.6885 0.8 12.6925 0.9 12.7005 0.995999C12.7085 1.284 12.7165 1.576 12.7245 1.872C12.7325 2.16 12.7365 2.448 12.7365 2.736C12.7365 2.808 12.6965 2.864 12.6165 2.904C12.5445 2.936 12.4805 2.952 12.4245 2.952C12.3685 2.952 12.3125 2.948 12.2565 2.94C12.2085 2.932 12.1645 2.904 12.1245 2.856C12.1165 2.832 12.0965 2.784 12.0645 2.712C12.0325 2.632 12.0005 2.552 11.9685 2.472C11.9365 2.384 11.9125 2.324 11.8965 2.292C11.7925 2.06 11.6605 1.84 11.5005 1.632C11.3485 1.424 11.1685 1.24 10.9605 1.08C10.7605 0.92 10.4965 0.788 10.1685 0.684C9.8405 0.572 9.5445 0.516 9.2805 0.516C8.7525 0.516 8.3045 0.648 7.9365 0.912C7.5765 1.168 7.2845 1.504 7.0605 1.92C6.8365 2.336 6.6725 2.784 6.5685 3.264C6.4645 3.736 6.4125 4.192 6.4125 4.632C6.4125 5.088 6.4645 5.54 6.5685 5.988C6.6805 6.436 6.8525 6.844 7.0845 7.212C7.3165 7.58 7.6165 7.876 7.9845 8.1C8.3605 8.316 8.8125 8.424 9.3405 8.424C9.4925 8.424 9.6765 8.408 9.8925 8.376C10.1165 8.344 10.3325 8.288 10.5405 8.208C10.7565 8.128 10.9365 8.024 11.0805 7.896C11.2245 7.76 11.2965 7.592 11.2965 7.392V5.82C11.2965 5.708 11.2485 5.636 11.1525 5.604C11.0565 5.564 10.9645 5.544 10.8765 5.544C10.7485 5.544 10.6245 5.552 10.5045 5.568C10.3845 5.576 10.2645 5.58 10.1445 5.58C10.0805 5.58 10.0245 5.556 9.9765 5.508C9.9365 5.46 9.9165 5.408 9.9165 5.352C9.9165 5.2 9.9885 5.124 10.1325 5.124C10.2685 5.124 10.4045 5.128 10.5405 5.136C10.6845 5.136 10.8245 5.136 10.9605 5.136C11.2245 5.136 11.4885 5.136 11.7525 5.136C12.0165 5.136 12.2805 5.132 12.5445 5.124C12.6725 5.116 12.8005 5.108 12.9285 5.1C13.0645 5.092 13.1965 5.088 13.3245 5.088C13.3725 5.088 13.4205 5.112 13.4685 5.16C13.5165 5.208 13.5405 5.256 13.5405 5.304Z" fill="black"/>
</g>
<defs>
<filter id="filter0_d_1_3" x="0.96051" y="0.108002" width="16.58" height="16.868" filterUnits="userSpaceOnUse" color-interpolation-filters="sRGB">
<feFlood flood-opacity="0" result="BackgroundImageFix"/>
<feColorMatrix in="SourceAlpha" type="matrix" values="0 0 0 0 0 0 0 0 0 0 0 0 0 0 0 0 0 0 127 0" result="hardAlpha"/>
<feOffset dy="4"/>
<feGaussianBlur stdDeviation="2"/>
<feComposite in2="hardAlpha" operator="out"/>
<feColorMatrix type="matrix" values="0 0 0 0 0 0 0 0 0 0 0 0 0 0 0 0 0 0 0.25 0"/>
<feBlend mode="normal" in2="BackgroundImageFix" result="effect1_dropShadow_1_3"/>
<feBlend mode="normal" in="SourceGraphic" in2="effect1_dropShadow_1_3" result="shape"/>
</filter>
</defs>
</svg>
