<svg width="8" height="10" viewBox="0 0 8 10" fill="none" xmlns="http://www.w3.org/2000/svg">
<path d="M7.872 6.264C7.872 6.32 7.868 6.38 7.86 6.444C7.852 6.5 7.84 6.56 7.824 6.624C7.768 6.968 7.72 7.308 7.68 7.644C7.64 7.98 7.592 8.32 7.536 8.664C7.536 8.696 7.532 8.732 7.524 8.772C7.516 8.812 7.5 8.848 7.476 8.88C7.444 8.92 7.4 8.948 7.344 8.964C7.296 8.972 7.248 8.976 7.2 8.976C7.12 8.976 7.036 8.976 6.948 8.976C6.868 8.968 6.784 8.964 6.696 8.964C6.112 8.956 5.528 8.952 4.944 8.952C4.368 8.952 3.788 8.952 3.204 8.952C3.012 8.952 2.82 8.952 2.628 8.952C2.436 8.952 2.244 8.956 2.052 8.964C1.788 8.972 1.52 8.984 1.248 9C0.984 9.016 0.72 9.024 0.456 9.024C0.296 9.024 0.216 8.956 0.216 8.82C0.216 8.732 0.236 8.68 0.276 8.664C0.324 8.64 0.384 8.628 0.456 8.628C0.52 8.628 0.584 8.632 0.648 8.64C0.72 8.64 0.788 8.64 0.852 8.64C0.964 8.64 1.072 8.624 1.176 8.592C1.288 8.56 1.344 8.476 1.344 8.34V1.284C1.344 1.116 1.34 0.98 1.332 0.875999C1.332 0.771999 1.3 0.695999 1.236 0.648C1.172 0.6 1.044 0.576 0.852 0.576C0.772 0.576 0.692 0.58 0.612 0.588C0.54 0.595999 0.468 0.599999 0.396 0.599999C0.364 0.599999 0.328 0.579999 0.288 0.539999C0.256 0.492 0.24 0.452 0.24 0.42C0.24 0.38 0.248 0.332 0.264 0.275999C0.288 0.212 0.328 0.18 0.384 0.18C0.672 0.18 0.96 0.188 1.248 0.204C1.544 0.211999 1.836 0.215999 2.124 0.215999C2.404 0.215999 2.684 0.211999 2.964 0.204C3.252 0.188 3.536 0.18 3.816 0.18C3.944 0.18 4.008 0.24 4.008 0.36C4.008 0.415999 3.988 0.467999 3.948 0.516C3.916 0.556 3.872 0.576 3.816 0.576H3.324C3.22 0.576 3.096 0.592 2.952 0.624C2.808 0.656 2.736 0.748 2.736 0.9C2.736 1.18 2.732 1.464 2.724 1.752C2.724 2.032 2.724 2.312 2.724 2.592C2.724 3.528 2.724 4.464 2.724 5.4C2.732 6.336 2.736 7.268 2.736 8.196C2.736 8.316 2.78 8.404 2.868 8.46C2.964 8.516 3.072 8.552 3.192 8.568C3.312 8.576 3.416 8.58 3.504 8.58C3.76 8.58 4.036 8.58 4.332 8.58C4.628 8.58 4.924 8.564 5.22 8.532C5.516 8.492 5.792 8.42 6.048 8.316C6.304 8.204 6.524 8.04 6.708 7.824C6.9 7.592 7.048 7.344 7.152 7.08C7.256 6.808 7.36 6.536 7.464 6.264C7.488 6.2 7.524 6.164 7.572 6.156C7.62 6.14 7.672 6.132 7.728 6.132C7.76 6.132 7.792 6.144 7.824 6.168C7.856 6.192 7.872 6.224 7.872 6.264Z" fill="black"/>
</svg>
