<svg xmlns="http://www.w3.org/2000/svg" version="1.1" xmlns:xlink="http://www.w3.org/1999/xlink" xmlns:svgjs="http://svgjs.com/svgjs" width="18" height="11"><svg width="18" height="11" viewBox="0 0 18 11" fill="none" xmlns="http://www.w3.org/2000/svg">
<path d="M8.08655 7.936C8.08655 8.064 8.07055 8.196 8.03855 8.332C8.01455 8.46 7.99455 8.592 7.97855 8.728C7.96255 8.88 7.94255 9.036 7.91855 9.196C7.90255 9.356 7.88655 9.516 7.87055 9.676C7.84655 9.804 7.81055 9.892 7.76255 9.94C7.71455 9.98 7.62255 10 7.48655 10C6.67055 10 5.85455 9.996 5.03855 9.988C4.22255 9.972 3.40655 9.964 2.59055 9.964C2.31055 9.964 2.03055 9.976 1.75055 10C1.47055 10.032 1.19055 10.048 0.910547 10.048C0.774547 10.048 0.706547 9.98 0.706547 9.844C0.706547 9.708 0.766547 9.64 0.886547 9.64C1.00655 9.632 1.13455 9.62 1.27055 9.604C1.43055 9.588 1.55855 9.528 1.65455 9.424C1.75855 9.312 1.81055 9.088 1.81055 8.752V2.284C1.81055 2.156 1.78655 2.032 1.73855 1.912C1.69855 1.792 1.59855 1.732 1.43855 1.732C1.34255 1.732 1.24655 1.736 1.15055 1.744C1.05455 1.744 0.958547 1.744 0.862547 1.744C0.662547 1.744 0.562547 1.648 0.562547 1.456C0.562547 1.36 0.594547 1.3 0.658547 1.276C0.722547 1.244 0.794547 1.228 0.874547 1.228C1.10655 1.228 1.33455 1.236 1.55855 1.252C1.78255 1.26 2.00655 1.264 2.23055 1.264C2.98255 1.264 3.73455 1.26 4.48655 1.252C5.23855 1.236 5.99055 1.228 6.74255 1.228C6.88655 1.228 7.03055 1.224 7.17455 1.216C7.31855 1.2 7.46255 1.184 7.60655 1.168C7.62255 1.296 7.63855 1.424 7.65455 1.552C7.67855 1.68 7.69855 1.808 7.71455 1.936C7.73855 2.088 7.77055 2.248 7.81055 2.416C7.85855 2.584 7.88255 2.748 7.88255 2.908C7.88255 3.004 7.84255 3.084 7.76255 3.148C7.68255 3.204 7.59855 3.232 7.51055 3.232C7.31855 3.232 7.19055 3.148 7.12655 2.98C7.00655 2.604 6.82655 2.292 6.58655 2.044C6.35455 1.788 6.02655 1.66 5.60255 1.66H3.44255V5.188C3.74655 5.188 4.04255 5.184 4.33055 5.176C4.62655 5.168 4.92255 5.152 5.21855 5.128C5.51455 5.104 5.79855 5.056 6.07055 4.984C6.18255 4.96 6.29855 4.928 6.41855 4.888C6.54655 4.848 6.66655 4.828 6.77855 4.828C6.87455 4.828 6.92255 4.872 6.92255 4.96C6.92255 5.016 6.90655 5.1 6.87455 5.212C6.85055 5.324 6.83055 5.408 6.81455 5.464C6.77455 5.568 6.73455 5.632 6.69455 5.656C6.65455 5.672 6.58255 5.68 6.47855 5.68C6.28655 5.68 6.09855 5.668 5.91455 5.644C5.61055 5.612 5.30255 5.592 4.99055 5.584C4.67855 5.568 4.36655 5.56 4.05455 5.56C3.87855 5.56 3.73055 5.608 3.61055 5.704C3.49855 5.792 3.44255 5.932 3.44255 6.124V9.076C3.44255 9.268 3.46655 9.404 3.51455 9.484C3.57055 9.564 3.69855 9.604 3.89855 9.604C4.11455 9.604 4.35455 9.604 4.61855 9.604C4.88255 9.604 5.15055 9.592 5.42255 9.568C5.70255 9.544 5.96255 9.492 6.20255 9.412C6.44255 9.332 6.64255 9.212 6.80255 9.052C6.93855 8.916 7.07055 8.736 7.19855 8.512C7.32655 8.288 7.43055 8.088 7.51055 7.912C7.55055 7.816 7.59055 7.752 7.63055 7.72C7.67055 7.68 7.74255 7.66 7.84655 7.66C7.94255 7.66 8.00655 7.684 8.03855 7.732C8.07055 7.78 8.08655 7.848 8.08655 7.936ZM13.9525 6.436C13.7285 5.756 13.4965 5.08 13.2565 4.408C13.0245 3.736 12.8005 3.06 12.5845 2.38C12.3525 3.06 12.1205 3.736 11.8885 4.408C11.6645 5.08 11.4365 5.756 11.2045 6.436H13.9525ZM17.5525 9.88C17.5525 10 17.4765 10.06 17.3245 10.06C17.2765 10.06 17.2285 10.06 17.1805 10.06C17.1325 10.06 17.0805 10.056 17.0245 10.048C16.8245 10.032 16.6165 10.024 16.4005 10.024C16.1925 10.024 15.9845 10.024 15.7765 10.024C15.5125 10.024 15.2485 10.024 14.9845 10.024C14.7205 10.024 14.4525 10.032 14.1805 10.048C14.1485 10.056 14.1165 10.06 14.0845 10.06C14.0525 10.06 14.0205 10.06 13.9885 10.06C13.8765 10.06 13.8205 10.004 13.8205 9.892C13.8205 9.796 13.8525 9.74 13.9165 9.724C13.9885 9.7 14.0685 9.692 14.1565 9.7C14.2445 9.708 14.3165 9.712 14.3725 9.712C14.5165 9.712 14.6205 9.684 14.6845 9.628C14.7565 9.564 14.7925 9.456 14.7925 9.304C14.7925 9.216 14.7645 9.064 14.7085 8.848C14.6525 8.624 14.5845 8.38 14.5045 8.116C14.4245 7.852 14.3445 7.608 14.2645 7.384C14.1925 7.152 14.1405 6.988 14.1085 6.892H11.0485C11.0325 6.94 10.9965 7.048 10.9405 7.216C10.8845 7.384 10.8165 7.58 10.7365 7.804C10.6645 8.028 10.5925 8.248 10.5205 8.464C10.4485 8.68 10.3885 8.868 10.3405 9.028C10.2925 9.18 10.2685 9.272 10.2685 9.304C10.2685 9.456 10.3085 9.56 10.3885 9.616C10.4685 9.672 10.5685 9.704 10.6885 9.712C10.8085 9.712 10.9245 9.712 11.0365 9.712C11.0765 9.712 11.1085 9.74 11.1325 9.796C11.1565 9.844 11.1685 9.888 11.1685 9.928C11.1685 9.976 11.1485 10.012 11.1085 10.036C11.0765 10.06 11.0405 10.072 11.0005 10.072C10.7365 10.072 10.4725 10.064 10.2085 10.048C9.95248 10.04 9.69648 10.036 9.44048 10.036C9.31248 10.036 9.18448 10.04 9.05648 10.048C8.92848 10.056 8.79648 10.06 8.66048 10.06C8.62048 10.06 8.58048 10.044 8.54048 10.012C8.50048 9.98 8.48048 9.944 8.48048 9.904C8.48048 9.816 8.51248 9.76 8.57648 9.736C8.64048 9.712 8.71248 9.704 8.79248 9.712C8.88048 9.712 8.95248 9.712 9.00848 9.712C9.11248 9.712 9.19648 9.672 9.26048 9.592C9.33248 9.504 9.38448 9.42 9.41648 9.34C9.88848 8.156 10.3365 6.968 10.7605 5.776C11.1845 4.576 11.5965 3.372 11.9965 2.164C12.0285 2.076 12.0685 1.952 12.1165 1.792C12.1645 1.632 12.1885 1.512 12.1885 1.432C12.1885 1.384 12.1765 1.344 12.1525 1.312C12.1365 1.272 12.1285 1.236 12.1285 1.204C12.1285 1.172 12.1685 1.148 12.2485 1.132C12.3285 1.116 12.4125 1.104 12.5005 1.096C12.5885 1.088 12.6445 1.084 12.6685 1.084C12.8365 1.06 13.0005 1.036 13.1605 1.012C13.3285 0.988 13.4965 0.968 13.6645 0.952L16.6045 9.244C16.6685 9.436 16.7525 9.56 16.8565 9.616C16.9685 9.664 17.1165 9.688 17.3005 9.688C17.3725 9.688 17.4325 9.7 17.4805 9.724C17.5285 9.74 17.5525 9.792 17.5525 9.88Z" fill="black"></path>
</svg><style>@media (prefers-color-scheme: light) { :root { filter: none; } }
@media (prefers-color-scheme: dark) { :root { filter: invert(100%); } }
</style></svg>